name rise31.4854peak64.571fall78.6902.mot
datacolumns 19
datarows 15
range 1.88666300000000 1.90999400000000
endheader
time	ground_force1_vx	ground_force1_vy	ground_force1_vz	ground_force1_px	ground_force1_py	ground_force1_pz	ground_force2_vx	ground_force2_vy	ground_force2_vz	ground_force2_px	ground_force2_py	ground_force2_pz	ground_torque1_x	ground_torque1_y	ground_torque1_z	ground_torque2_x	ground_torque2_y	ground_torque2_z	
1.88666300000000	11.99897100000000	692.76470700000004	39.93228900000000	0.19508600000000	0.00000000000000	0.10203700000000	0.00000000000000	0.00000000000000	0.00000000000000	0.00000000000000	0.00000000000000	0.00000000000000	0.00000000000000	12.71343800000000	0.00000000000000	0.00000000000000	0.00000000000000	0.00000000000000	
1.88832400000000	11.56491900000000	694.20601199999999	40.03107500000000	0.19405200000000	0.00000000000000	0.10209200000000	0.00000000000000	0.00000000000000	0.00000000000000	0.00000000000000	0.00000000000000	0.00000000000000	0.00000000000000	12.80017300000000	0.00000000000000	0.00000000000000	0.00000000000000	0.00000000000000	
1.88999500000000	11.11803500000000	695.67296699999997	40.13009300000000	0.19300000000000	0.00000000000000	0.10214700000000	0.00000000000000	0.00000000000000	0.00000000000000	0.00000000000000	0.00000000000000	0.00000000000000	0.00000000000000	12.88937200000000	0.00000000000000	0.00000000000000	0.00000000000000	0.00000000000000	
1.89166600000000	10.65815700000000	697.16429400000004	40.22922600000000	0.19193000000000	0.00000000000000	0.10220200000000	0.00000000000000	0.00000000000000	0.00000000000000	0.00000000000000	0.00000000000000	0.00000000000000	0.00000000000000	12.98098500000000	0.00000000000000	0.00000000000000	0.00000000000000	0.00000000000000	
1.89333100000000	10.18515300000000	698.67884800000002	40.32838000000000	0.19084600000000	0.00000000000000	0.10225700000000	0.00000000000000	0.00000000000000	0.00000000000000	0.00000000000000	0.00000000000000	0.00000000000000	0.00000000000000	13.07496600000000	0.00000000000000	0.00000000000000	0.00000000000000	0.00000000000000	
1.89499300000000	9.69893100000000	700.21561699999995	40.42748200000000	0.18974600000000	0.00000000000000	0.10231200000000	0.00000000000000	0.00000000000000	0.00000000000000	0.00000000000000	0.00000000000000	0.00000000000000	0.00000000000000	13.17127100000000	0.00000000000000	0.00000000000000	0.00000000000000	0.00000000000000	
1.89665900000000	9.19943200000000	701.77372400000002	40.52647900000000	0.18863300000000	0.00000000000000	0.10236600000000	0.00000000000000	0.00000000000000	0.00000000000000	0.00000000000000	0.00000000000000	0.00000000000000	0.00000000000000	13.26985600000000	0.00000000000000	0.00000000000000	0.00000000000000	0.00000000000000	
1.89833000000000	8.68663300000000	703.35242100000005	40.62534300000000	0.18750700000000	0.00000000000000	0.10241900000000	0.00000000000000	0.00000000000000	0.00000000000000	0.00000000000000	0.00000000000000	0.00000000000000	0.00000000000000	13.37068100000000	0.00000000000000	0.00000000000000	0.00000000000000	0.00000000000000	
1.89999300000000	8.16054500000000	704.95108800000003	40.72406300000000	0.18637000000000	0.00000000000000	0.10247200000000	0.00000000000000	0.00000000000000	0.00000000000000	0.00000000000000	0.00000000000000	0.00000000000000	0.00000000000000	13.47370300000000	0.00000000000000	0.00000000000000	0.00000000000000	0.00000000000000	
1.90165800000000	7.62121400000000	706.56923400000005	40.82264900000000	0.18522400000000	0.00000000000000	0.10252500000000	0.00000000000000	0.00000000000000	0.00000000000000	0.00000000000000	0.00000000000000	0.00000000000000	0.00000000000000	13.57888100000000	0.00000000000000	0.00000000000000	0.00000000000000	0.00000000000000	
1.90333000000000	7.06872100000000	708.20648500000004	40.92113300000000	0.18406800000000	0.00000000000000	0.10257600000000	0.00000000000000	0.00000000000000	0.00000000000000	0.00000000000000	0.00000000000000	0.00000000000000	0.00000000000000	13.68617300000000	0.00000000000000	0.00000000000000	0.00000000000000	0.00000000000000	
1.90499500000000	6.50317900000000	709.86258599999996	41.01956600000000	0.18290500000000	0.00000000000000	0.10262700000000	0.00000000000000	0.00000000000000	0.00000000000000	0.00000000000000	0.00000000000000	0.00000000000000	0.00000000000000	13.79553600000000	0.00000000000000	0.00000000000000	0.00000000000000	0.00000000000000	
1.90666100000000	5.92473300000000	711.53738899999996	41.11801700000000	0.18173600000000	0.00000000000000	0.10267700000000	0.00000000000000	0.00000000000000	0.00000000000000	0.00000000000000	0.00000000000000	0.00000000000000	0.00000000000000	13.90692400000000	0.00000000000000	0.00000000000000	0.00000000000000	0.00000000000000	
1.90832800000000	5.33356300000000	713.23085200000003	41.21657600000000	0.18056100000000	0.00000000000000	0.10272500000000	0.00000000000000	0.00000000000000	0.00000000000000	0.00000000000000	0.00000000000000	0.00000000000000	0.00000000000000	14.02029300000000	0.00000000000000	0.00000000000000	0.00000000000000	0.00000000000000	
1.90999400000000	4.72987900000000	714.94302800000003	41.31535000000000	0.17938300000000	0.00000000000000	0.10277200000000	0.00000000000000	0.00000000000000	0.00000000000000	0.00000000000000	0.00000000000000	0.00000000000000	0.00000000000000	14.13559200000000	0.00000000000000	0.00000000000000	0.00000000000000	0.00000000000000	
